<svg xmlns="http://www.w3.org/2000/svg" xmlns:xlink="http://www.w3.org/1999/xlink" width="420" height="600" viewBox="0 0 420 600"><defs><clipPath id="b"><rect width="420" height="600"/></clipPath></defs><g id="a" clip-path="url(#b)"><g transform="translate(32 25)" fill="#535050" stroke="#535050" stroke-width="1"><rect width="350" height="550" rx="38" stroke="none"/><rect x="0.5" y="0.5" width="349" height="549" rx="37.5" fill="none"/></g><line x2="350" transform="translate(32 99)" fill="none" stroke="#707070" stroke-width="1"/><g transform="translate(314 525)"><path d="M14,9.5a4.5,4.5,0,1,0,4.3,3.178A4.5,4.5,0,0,0,14,9.5ZM11,14a3,3,0,1,1,3,3A3,3,0,0,1,11,14Z" transform="translate(0 0)" fill="#2e2828"/><path d="M25.885,25.794l-2.1-.885a2.175,2.175,0,0,0-1.877.1,1.961,1.961,0,0,0-1,1.5L20.649,28.7a1.093,1.093,0,0,1-.855.929,14.809,14.809,0,0,1-6.589,0,1.093,1.093,0,0,1-.855-.929L12.1,26.511a1.982,1.982,0,0,0-1.021-1.495,2.142,2.142,0,0,0-1.858-.1l-2.1.885a1.155,1.155,0,0,1-1.269-.251A13.95,13.95,0,0,1,2.55,20.1a1.053,1.053,0,0,1,.406-1.185L4.816,17.6a1.937,1.937,0,0,0,0-3.2L2.957,13.089A1.053,1.053,0,0,1,2.55,11.9a13.944,13.944,0,0,1,3.3-5.445,1.155,1.155,0,0,1,1.27-.25l2.094.883a2.133,2.133,0,0,0,1.867-.1,1.988,1.988,0,0,0,1.02-1.5L12.353,3.3a1.094,1.094,0,0,1,.871-.932A16.583,16.583,0,0,1,16.516,2a16.451,16.451,0,0,1,3.262.363,1.094,1.094,0,0,1,.871.932L20.9,5.488a2.041,2.041,0,0,0,2.056,1.77,2.1,2.1,0,0,0,.826-.168l2.095-.883a1.155,1.155,0,0,1,1.27.25,13.943,13.943,0,0,1,3.3,5.445,1.053,1.053,0,0,1-.406,1.186L28.184,14.4a1.928,1.928,0,0,0,0,3.2l1.858,1.314A1.053,1.053,0,0,1,30.45,20.1a13.951,13.951,0,0,1-3.3,5.445A1.155,1.155,0,0,1,25.885,25.794Zm-6.63-.231a3.723,3.723,0,0,1,1.735-2.068,4.072,4.072,0,0,1,3.525-.188l1.636.688a12.214,12.214,0,0,0,2.4-3.964L27.1,19.007h0a3.635,3.635,0,0,1,0-6.013h0l1.445-1.023a12.209,12.209,0,0,0-2.4-3.964l-1.622.684h0a4,4,0,0,1-1.566.317A3.842,3.842,0,0,1,19.088,5.68v0l-.2-1.7a14.558,14.558,0,0,0-2.375-.225,14.737,14.737,0,0,0-2.4.225l-.2,1.7A3.735,3.735,0,0,1,12,8.5a4.031,4.031,0,0,1-3.522.195L6.849,8.007a12.208,12.208,0,0,0-2.4,3.963L5.9,12.994a3.644,3.644,0,0,1,0,6.013L4.45,20.033A12.214,12.214,0,0,0,6.849,24l1.638-.689a4.038,4.038,0,0,1,3.5.188,3.729,3.729,0,0,1,1.922,2.813v.005l.2,1.708a12.907,12.907,0,0,0,4.78,0l.2-1.712A3.68,3.68,0,0,1,19.255,25.563Z" transform="translate(-2.5 -2)" fill="#2e2828"/></g><g transform="translate(72 525)"><path d="M17.978,16.023V3.981a.977.977,0,0,0-1.954,0V16.023H3.981a.977.977,0,1,0,0,1.954H16.025v12.05a.977.977,0,0,0,1.954,0V17.977l12.049,0a.977.977,0,1,0,0-1.954Z" transform="translate(-3.004 -3.004)" fill="#2e2828"/></g><line x2="350" transform="translate(32 180)" fill="none" stroke="#707070" stroke-width="1"/><line x2="350" transform="translate(32 241)" fill="none" stroke="#707070" stroke-width="1"/><line x2="350" transform="translate(32 241)" fill="none" stroke="#707070" stroke-width="1" opacity="0"/><line x2="350" transform="translate(32 302)" fill="none" stroke="#707070" stroke-width="1"/><line x2="350" transform="translate(32 302)" fill="none" stroke="#707070" stroke-width="1" opacity="0"/><line x2="350" transform="translate(32 363)" fill="none" stroke="#707070" stroke-width="1"/><line x2="350" transform="translate(32 363)" fill="none" stroke="#707070" stroke-width="1" opacity="0"/><line x2="350" transform="translate(32 424)" fill="none" stroke="#707070" stroke-width="1"/><line x2="350" transform="translate(32 424)" fill="none" stroke="#707070" stroke-width="1" opacity="0"/><line x2="350" transform="translate(32 485)" fill="none" stroke="#707070" stroke-width="1"/><rect width="150" height="20" rx="9" transform="translate(132 52)" fill="#2e2828"/><text transform="translate(159 66)" fill="#fff" font-size="13" font-family="SegoeUI, Segoe UI"><tspan x="0" y="0">Time</tspan></text><text transform="translate(227 66)" fill="#707070" font-size="13" font-family="SegoeUI, Segoe UI"><tspan x="0" y="0">Frame</tspan></text><line y2="20" transform="translate(207 52)" fill="none" stroke="#707070" stroke-width="1"/><g transform="translate(50 126)"><text fill="#fff" font-size="20" font-family="SegoeUI, Segoe UI"><tspan x="0" y="22">Central Time</tspan></text><text transform="translate(264)" fill="#fff" font-size="20" font-family="SegoeUI, Segoe UI"><tspan x="0" y="22">17:00</tspan></text></g><g transform="translate(50 191)"><text fill="#fff" font-size="20" font-family="SegoeUI, Segoe UI"><tspan x="0" y="22">UTC</tspan></text><text transform="translate(264 5)" fill="#fff" font-size="20" font-family="SegoeUI, Segoe UI"><tspan x="0" y="22">23:00</tspan></text><text transform="translate(0 36)" fill="#9e9e9e" font-size="12" font-family="SegoeUI, Segoe UI"><tspan x="0" y="0">+6h</tspan></text></g><g transform="translate(50 252)"><text fill="#fff" font-size="20" font-family="SegoeUI, Segoe UI"><tspan x="0" y="22">Pacific Time (PST)</tspan></text><text transform="translate(264 5)" fill="#fff" font-size="20" font-family="SegoeUI, Segoe UI"><tspan x="0" y="22">15:00</tspan></text><text transform="translate(0 36)" fill="#9e9e9e" font-size="12" font-family="SegoeUI, Segoe UI"><tspan x="0" y="0">-2h</tspan></text></g><g transform="translate(50 313)"><text fill="#fff" font-size="20" font-family="SegoeUI, Segoe UI"><tspan x="0" y="22">Mountain Time (MST)</tspan></text><text transform="translate(264 5)" fill="#fff" font-size="20" font-family="SegoeUI, Segoe UI"><tspan x="0" y="22">16:00</tspan></text><text transform="translate(0 36)" fill="#9e9e9e" font-size="12" font-family="SegoeUI, Segoe UI"><tspan x="0" y="0">-1h</tspan></text></g><g transform="translate(50 374)"><text fill="#fff" font-size="20" font-family="SegoeUI, Segoe UI"><tspan x="0" y="22">Eastern Time (EST)</tspan></text><text transform="translate(264 5)" fill="#fff" font-size="20" font-family="SegoeUI, Segoe UI"><tspan x="0" y="22">18:00</tspan></text><text transform="translate(0 36)" fill="#9e9e9e" font-size="12" font-family="SegoeUI, Segoe UI"><tspan x="0" y="0">+1h</tspan></text></g></g></svg>